<!--https://trianglify.io/p/w:1500!h:350!x:GnBu!v:1!c:0.13!s:08bbpg-->
<svg xmlns="http://www.w3.org/2000/svg" width="1500" height="350"><path d="M697,134L596,16L522,200Z" fill="#94d4bd" stroke="#94d4bd" stroke-width="1.51"/><path d="M522,200L607,284L697,134Z" fill="#84cdc2" stroke="#84cdc2" stroke-width="1.51"/><path d="M697,134L794,-22L596,16Z" fill="#99d6bc" stroke="#99d6bc" stroke-width="1.51"/><path d="M915,128L794,-22L697,134Z" fill="#8bd0c0" stroke="#8bd0c0" stroke-width="1.51"/><path d="M264,-97L204,66L522,200Z" fill="#b2e1b9" stroke="#b2e1b9" stroke-width="1.51"/><path d="M706,-231L503,-126L596,16Z" fill="#b5e2c4" stroke="#b5e2c4" stroke-width="1.51"/><path d="M204,66L329,243L522,200Z" fill="#9dd8c0" stroke="#9dd8c0" stroke-width="1.51"/><path d="M522,200L304,329L607,284Z" fill="#87cac3" stroke="#87cac3" stroke-width="1.51"/><path d="M741,467L915,128L697,134Z" fill="#6ec3ca" stroke="#6ec3ca" stroke-width="1.51"/><path d="M607,284L691,442L697,134Z" fill="#73c3c9" stroke="#73c3c9" stroke-width="1.51"/><path d="M615,582L691,442L607,284Z" fill="#66acbd" stroke="#66acbd" stroke-width="1.51"/><path d="M329,243L304,329L522,200Z" fill="#8fcec5" stroke="#8fcec5" stroke-width="1.51"/><path d="M794,-22L706,-231L596,16Z" fill="#abddc4" stroke="#abddc4" stroke-width="1.51"/><path d="M966,-133L706,-231L794,-22Z" fill="#a7dacc" stroke="#a7dacc" stroke-width="1.51"/><path d="M691,442L741,467L697,134Z" fill="#67b9c6" stroke="#67b9c6" stroke-width="1.51"/><path d="M615,582L741,467L691,442Z" fill="#5ea1ba" stroke="#5ea1ba" stroke-width="1.51"/><path d="M264,-97L522,200L596,16Z" fill="#abdeb6" stroke="#abdeb6" stroke-width="1.51"/><path d="M329,243L242,287L304,329Z" fill="#92ceca" stroke="#92ceca" stroke-width="1.51"/><path d="M706,-231L429,-225L503,-126Z" fill="#c0e6ca" stroke="#c0e6ca" stroke-width="1.51"/><path d="M204,66L242,287L329,243Z" fill="#a0d8c5" stroke="#a0d8c5" stroke-width="1.51"/><path d="M264,-97L596,16L503,-126Z" fill="#bce5be" stroke="#bce5be" stroke-width="1.51"/><path d="M429,-225L264,-97L503,-126Z" fill="#c6e9c7" stroke="#c6e9c7" stroke-width="1.51"/><path d="M915,128L1005,-63L794,-22Z" fill="#90cfc4" stroke="#90cfc4" stroke-width="1.51"/><path d="M1005,-63L966,-133L794,-22Z" fill="#9dd3ca" stroke="#9dd3ca" stroke-width="1.51"/><path d="M380,626L615,582L304,329Z" fill="#75a6b5" stroke="#75a6b5" stroke-width="1.51"/><path d="M304,329L615,582L607,284Z" fill="#76b6bd" stroke="#76b6bd" stroke-width="1.51"/><path d="M915,128L1192,43L1005,-63Z" fill="#85c7c5" stroke="#85c7c5" stroke-width="1.51"/><path d="M1058,304L1050,222L915,128Z" fill="#60bbce" stroke="#60bbce" stroke-width="1.51"/><path d="M1058,304L915,128L741,467Z" fill="#59b7d0" stroke="#59b7d0" stroke-width="1.51"/><path d="M264,-97L105,100L204,66Z" fill="#c0e6c0" stroke="#c0e6c0" stroke-width="1.51"/><path d="M204,66L105,100L242,287Z" fill="#abddc4" stroke="#abddc4" stroke-width="1.51"/><path d="M1020,443L1058,304L741,467Z" fill="#49a5c8" stroke="#49a5c8" stroke-width="1.51"/><path d="M1039,472L1020,443L741,467Z" fill="#469cc3" stroke="#469cc3" stroke-width="1.51"/><path d="M174,519L380,626L304,329Z" fill="#80acbb" stroke="#80acbb" stroke-width="1.51"/><path d="M174,519L304,329L242,287Z" fill="#8cc0c5" stroke="#8cc0c5" stroke-width="1.51"/><path d="M1020,443L1039,472L1058,304Z" fill="#3fa0c9" stroke="#3fa0c9" stroke-width="1.51"/><path d="M615,582L1039,472L741,467Z" fill="#509bbc" stroke="#509bbc" stroke-width="1.51"/><path d="M706,-231L186,-280L429,-225Z" fill="#ccebcd" stroke="#ccebcd" stroke-width="1.51"/><path d="M429,-225L186,-280L264,-97Z" fill="#d2eece" stroke="#d2eece" stroke-width="1.51"/><path d="M264,-97L-48,14L105,100Z" fill="#c5e8c4" stroke="#c5e8c4" stroke-width="1.51"/><path d="M5,429L174,519L242,287Z" fill="#8dbcc6" stroke="#8dbcc6" stroke-width="1.51"/><path d="M-48,14L9,231L105,100Z" fill="#b7e3c9" stroke="#b7e3c9" stroke-width="1.51"/><path d="M105,100L9,231L242,287Z" fill="#a5dacb" stroke="#a5dacb" stroke-width="1.51"/><path d="M1005,-63L1134,-194L966,-133Z" fill="#9acfd2" stroke="#9acfd2" stroke-width="1.51"/><path d="M1050,222L1192,43L915,128Z" fill="#70c0c8" stroke="#70c0c8" stroke-width="1.51"/><path d="M1400,118L1192,43L1050,222Z" fill="#6ab4c2" stroke="#6ab4c2" stroke-width="1.51"/><path d="M1400,118L1050,222L1378,387Z" fill="#4da5c6" stroke="#4da5c6" stroke-width="1.51"/><path d="M1192,43L1134,-194L1005,-63Z" fill="#92c7c9" stroke="#92c7c9" stroke-width="1.51"/><path d="M966,-133L1134,-194L706,-231Z" fill="#a5d7d4" stroke="#a5d7d4" stroke-width="1.51"/><path d="M706,-231L1614,-307L186,-280Z" fill="#b3ded9" stroke="#b3ded9" stroke-width="1.51"/><path d="M-72,-167L-48,14L264,-97Z" fill="#d3eecd" stroke="#d3eecd" stroke-width="1.51"/><path d="M9,231L5,429L242,287Z" fill="#99cdd1" stroke="#99cdd1" stroke-width="1.51"/><path d="M-81,512L5,429L-290,263Z" fill="#98c2d1" stroke="#98c2d1" stroke-width="1.51"/><path d="M1039,472L1163,540L1058,304Z" fill="#3897c4" stroke="#3897c4" stroke-width="1.51"/><path d="M615,582L1163,540L1039,472Z" fill="#4091be" stroke="#4091be" stroke-width="1.51"/><path d="M1424,606L1163,540L615,582Z" fill="#3083b7" stroke="#3083b7" stroke-width="1.51"/><path d="M-48,14L-129,18L9,231Z" fill="#bee6ca" stroke="#bee6ca" stroke-width="1.51"/><path d="M186,-280L-72,-167L264,-97Z" fill="#d9f0d2" stroke="#d9f0d2" stroke-width="1.51"/><path d="M-72,-167L-129,18L-48,14Z" fill="#d4eecf" stroke="#d4eecf" stroke-width="1.51"/><path d="M5,429L-81,512L174,519Z" fill="#8cb2c5" stroke="#8cb2c5" stroke-width="1.51"/><path d="M174,519L-81,512L380,626Z" fill="#83a5ba" stroke="#83a5ba" stroke-width="1.51"/><path d="M-290,263L5,429L9,231Z" fill="#a0d1d8" stroke="#a0d1d8" stroke-width="1.51"/><path d="M1192,43L1379,-33L1134,-194Z" fill="#8bbdc4" stroke="#8bbdc4" stroke-width="1.51"/><path d="M1400,118L1379,-33L1192,43Z" fill="#77b1ba" stroke="#77b1ba" stroke-width="1.51"/><path d="M1378,387L1050,222L1058,304Z" fill="#45a7cd" stroke="#45a7cd" stroke-width="1.51"/><path d="M1379,-33L1353,-197L1134,-194Z" fill="#90bcc9" stroke="#90bcc9" stroke-width="1.51"/><path d="M1134,-194L1614,-307L706,-231Z" fill="#9fcad7" stroke="#9fcad7" stroke-width="1.51"/><path d="M1163,540L1378,387L1058,304Z" fill="#3393c2" stroke="#3393c2" stroke-width="1.51"/><path d="M-306,-249L-290,263L-129,18Z" fill="#d3eed2" stroke="#d3eed2" stroke-width="1.51"/><path d="M-129,18L-290,263L9,231Z" fill="#b4e2d2" stroke="#b4e2d2" stroke-width="1.51"/><path d="M-290,263L-294,462L-81,512Z" fill="#9bc2d4" stroke="#9bc2d4" stroke-width="1.51"/><path d="M-81,512L-298,488L380,626Z" fill="#89a9c2" stroke="#89a9c2" stroke-width="1.51"/><path d="M1379,-33L1523,-91L1353,-197Z" fill="#89b2c2" stroke="#89b2c2" stroke-width="1.51"/><path d="M1400,118L1523,-91L1379,-33Z" fill="#7bacb9" stroke="#7bacb9" stroke-width="1.51"/><path d="M1597,168L1523,-91L1400,118Z" fill="#6ea2b4" stroke="#6ea2b4" stroke-width="1.51"/><path d="M1378,387L1524,344L1400,118Z" fill="#3d96c3" stroke="#3d96c3" stroke-width="1.51"/><path d="M1558,539L1524,344L1378,387Z" fill="#217eb7" stroke="#217eb7" stroke-width="1.51"/><path d="M1163,540L1424,606L1378,387Z" fill="#207cb6" stroke="#207cb6" stroke-width="1.51"/><path d="M380,626L1424,606L615,582Z" fill="#4b8bae" stroke="#4b8bae" stroke-width="1.51"/><path d="M-290,263L-298,488L-294,462Z" fill="#9fc5d7" stroke="#9fc5d7" stroke-width="1.51"/><path d="M-294,462L-298,488L-81,512Z" fill="#96b6cf" stroke="#96b6cf" stroke-width="1.51"/><path d="M-72,-167L-306,-249L-129,18Z" fill="#e1f3da" stroke="#e1f3da" stroke-width="1.51"/><path d="M-290,263L-306,-249L-298,488Z" fill="#bce4d8" stroke="#bce4d8" stroke-width="1.51"/><path d="M186,-280L-306,-249L-72,-167Z" fill="#e5f5df" stroke="#e5f5df" stroke-width="1.51"/><path d="M1766,354L1597,168L1524,344Z" fill="#3788b9" stroke="#3788b9" stroke-width="1.51"/><path d="M1524,344L1597,168L1400,118Z" fill="#4d98bc" stroke="#4d98bc" stroke-width="1.51"/><path d="M1424,606L1558,539L1378,387Z" fill="#1873b1" stroke="#1873b1" stroke-width="1.51"/><path d="M1783,259L1663,59L1597,168Z" fill="#538fad" stroke="#538fad" stroke-width="1.51"/><path d="M1597,168L1663,59L1523,-91Z" fill="#6f9daf" stroke="#6f9daf" stroke-width="1.51"/><path d="M1700,-300L1614,-307L1523,-91Z" fill="#8da7c3" stroke="#8da7c3" stroke-width="1.51"/><path d="M1523,-91L1614,-307L1353,-197Z" fill="#8dafc7" stroke="#8dafc7" stroke-width="1.51"/><path d="M1353,-197L1614,-307L1134,-194Z" fill="#95b9ce" stroke="#95b9ce" stroke-width="1.51"/><path d="M1663,59L1700,-300L1523,-91Z" fill="#83a2b8" stroke="#83a2b8" stroke-width="1.51"/><path d="M1558,539L1766,354L1524,344Z" fill="#1f76b0" stroke="#1f76b0" stroke-width="1.51"/><path d="M1663,59L1783,259L1700,-300Z" fill="#7295a8" stroke="#7295a8" stroke-width="1.51"/><path d="M1766,354L1783,259L1597,168Z" fill="#3d83b0" stroke="#3d83b0" stroke-width="1.51"/><path d="M1766,354L1734,558L1783,259Z" fill="#236ea7" stroke="#236ea7" stroke-width="1.51"/><path d="M1558,539L1734,558L1766,354Z" fill="#1566a5" stroke="#1566a5" stroke-width="1.51"/><path d="M1424,606L1734,558L1558,539Z" fill="#0962a5" stroke="#0962a5" stroke-width="1.51"/></svg>