<?xml version="1.0" standalone="no"?>
<!DOCTYPE svg PUBLIC "-//W3C//DTD SVG 20010904//EN"
 "http://www.w3.org/TR/2001/REC-SVG-20010904/DTD/svg10.dtd">
<svg version="1.0" xmlns="http://www.w3.org/2000/svg"
 width="300.000000pt" height="300.000000pt" viewBox="0 0 300.000000 300.000000"
 preserveAspectRatio="xMidYMid meet">
<metadata>
Created by potrace 1.11, written by Peter Selinger 2001-2013
</metadata>
<g transform="translate(0.000000,300.000000) scale(0.100000,-0.100000)"
fill="#000000" stroke="none">
<path d="M1295 2978 c-273 -45 -494 -136 -691 -283 -331 -248 -543 -614 -593
-1025 -14 -118 -5 -340 19 -463 116 -596 585 -1063 1182 -1178 180 -35 436
-32 603 6 517 118 929 487 1098 985 76 222 96 519 51 755 -55 294 -196 557
-414 775 -239 239 -513 377 -840 425 -104 15 -335 17 -415 3z m90 -280 c14 -6
26 -15 26 -20 1 -4 2 -13 3 -18 2 -16 64 -51 71 -40 12 19 25 10 40 -25 14
-36 15 -36 40 -19 14 9 28 27 31 40 7 29 50 43 69 23 19 -21 26 -74 12 -92
-10 -14 -18 -14 -56 -4 -40 11 -45 10 -55 -7 -30 -51 -62 -78 -96 -79 -30 -1
-40 -7 -63 -44 -31 -47 -47 -113 -28 -113 6 0 17 -11 23 -25 9 -21 18 -25 52
-25 41 0 118 -29 130 -49 4 -5 12 -8 20 -5 18 7 66 -13 66 -28 0 -6 9 -31 21
-55 22 -45 41 -53 73 -30 15 11 16 15 2 41 -18 35 -14 45 24 71 35 23 40 59
10 75 -20 11 -27 40 -12 54 4 4 7 29 7 54 l0 47 44 -3 c25 -1 71 -14 102 -28
51 -23 59 -31 65 -60 3 -19 12 -34 20 -34 8 0 14 -4 14 -10 0 -13 48 8 79 34
18 16 25 18 29 8 2 -8 17 -29 33 -47 16 -18 29 -40 29 -49 0 -27 37 -57 64
-50 16 4 28 0 37 -11 8 -9 22 -25 31 -36 28 -30 22 -55 -14 -68 -18 -6 -42
-21 -54 -32 -18 -17 -25 -18 -48 -8 -30 14 -138 -1 -186 -26 -27 -14 -46 -43
-35 -53 3 -3 5 0 5 6 0 30 110 56 126 31 8 -14 -16 -30 -31 -21 -11 7 15 -29
29 -39 19 -15 -6 -38 -78 -73 -63 -30 -76 -40 -76 -60 0 -19 -9 -28 -45 -42
-29 -13 -45 -26 -47 -39 -2 -15 -10 -20 -31 -20 -22 1 -29 -5 -36 -30 -6 -22
-5 -33 6 -42 12 -9 12 -16 2 -35 -7 -12 -15 -30 -19 -38 -4 -8 -22 -25 -41
-37 -71 -46 -79 -54 -79 -78 0 -14 8 -29 19 -34 15 -9 19 -23 20 -75 1 -98
-24 -98 -63 0 -14 35 -28 58 -36 56 -7 -2 -28 4 -46 13 -28 13 -121 18 -108 6
2 -2 -1 -10 -7 -17 -8 -10 -16 -11 -30 -3 -27 14 -108 8 -102 -8 3 -7 -1 -13
-9 -13 -34 0 -49 -35 -53 -126 -5 -129 23 -188 95 -194 58 -5 67 -1 83 40 16
41 52 65 82 54 19 -8 19 -43 1 -69 -7 -11 -17 -39 -21 -62 l-7 -43 54 5 c48 4
55 2 71 -21 10 -13 21 -40 24 -59 4 -28 2 -35 -11 -35 -19 0 -20 -2 -3 -43 18
-42 41 -60 77 -59 34 1 33 2 20 -32 -10 -29 -44 -35 -57 -12 -4 8 -27 29 -51
46 -24 17 -56 51 -70 75 -16 25 -35 45 -45 45 -33 0 -90 30 -124 65 -31 32
-36 34 -82 28 -44 -5 -56 -1 -135 42 -93 50 -102 60 -112 125 -5 31 -18 54
-50 87 -24 25 -44 48 -44 52 0 4 -19 27 -41 51 -23 25 -50 64 -61 88 -10 23
-25 42 -33 42 -18 0 -12 -18 36 -100 41 -69 66 -154 35 -116 -9 11 -16 25 -16
31 0 6 -14 19 -30 29 -17 9 -28 21 -25 25 2 5 -16 49 -41 99 -34 67 -56 97
-83 115 -42 28 -115 130 -129 179 -5 18 -8 53 -7 78 7 117 7 136 5 145 -7 28
0 35 20 23 10 -7 22 -9 26 -5 14 14 -18 54 -67 83 -28 17 -49 36 -49 47 0 10
-8 17 -20 17 -12 0 -20 7 -20 16 0 9 -8 22 -17 29 -15 11 -12 19 32 81 70 99
206 230 313 302 52 34 98 62 104 62 6 0 19 6 27 14 9 8 49 28 90 44 70 28 76
29 96 14 15 -11 20 -24 17 -44 -5 -32 -6 -31 100 -28 63 1 67 0 83 -27 14 -25
16 -25 11 -5 -3 18 2 28 25 40 35 20 33 32 -7 45 -45 15 -55 26 -43 48 11 22
46 25 84 7z m576 -1885 c0 -11 3 -13 6 -5 8 20 39 14 94 -19 44 -26 56 -29 81
-20 16 6 36 7 46 3 31 -13 112 -76 112 -87 0 -13 42 -35 65 -35 57 0 -23 -85
-180 -191 -132 -90 -302 -162 -432 -184 -41 -6 -43 -5 -43 18 0 13 5 38 11 56
8 24 8 35 -1 46 -18 21 -5 60 35 104 19 21 36 49 36 62 2 32 -12 162 -19 173
-3 5 7 6 22 2 22 -5 29 -3 33 12 2 10 14 25 25 33 11 8 30 22 42 31 28 23 66
23 67 1z"/>
<path d="M980 2618 c-45 -18 -51 -23 -33 -27 12 -3 34 -17 49 -30 21 -18 26
-20 20 -6 -10 26 12 45 50 45 36 0 42 8 22 28 -17 17 -45 14 -108 -10z"/>
</g>
</svg>
