<!--https://trianglify.io/p/w:1500!h:350!x:OrRd!v:0.724!c:0.15!s:0.1023477784975253-->
<svg xmlns="http://www.w3.org/2000/svg" width="1500" height="350"><path d="M924,344L1041,447L1095,220Z" fill="#ee6345" stroke="#ee6345" stroke-width="1.51"/><path d="M1041,447L1312,364L1095,220Z" fill="#e8563b" stroke="#e8563b" stroke-width="1.51"/><path d="M1041,447L1074,642L1312,364Z" fill="#db3f29" stroke="#db3f29" stroke-width="1.51"/><path d="M825,565L1074,642L1041,447Z" fill="#d8472b" stroke="#d8472b" stroke-width="1.51"/><path d="M924,344L825,565L1041,447Z" fill="#e75637" stroke="#e75637" stroke-width="1.51"/><path d="M1095,220L806,96L924,344Z" fill="#f67a50" stroke="#f67a50" stroke-width="1.51"/><path d="M924,344L653,373L825,565Z" fill="#ec643e" stroke="#ec643e" stroke-width="1.51"/><path d="M806,96L704,237L924,344Z" fill="#f88254" stroke="#f88254" stroke-width="1.51"/><path d="M1095,220L864,-2L806,96Z" fill="#f98d5e" stroke="#f98d5e" stroke-width="1.51"/><path d="M1375,149L1059,-35L1095,220Z" fill="#f1794f" stroke="#f1794f" stroke-width="1.51"/><path d="M806,96L561,28L704,237Z" fill="#fd9b66" stroke="#fd9b66" stroke-width="1.51"/><path d="M1059,-35L864,-2L1095,220Z" fill="#f88f62" stroke="#f88f62" stroke-width="1.51"/><path d="M1312,364L1375,149L1095,220Z" fill="#e95d3b" stroke="#e95d3b" stroke-width="1.51"/><path d="M704,237L653,373L924,344Z" fill="#f6794f" stroke="#f6794f" stroke-width="1.51"/><path d="M1074,642L1374,657L1312,364Z" fill="#cd2b19" stroke="#cd2b19" stroke-width="1.51"/><path d="M1312,364L1600,341L1375,149Z" fill="#de4c2f" stroke="#de4c2f" stroke-width="1.51"/><path d="M1074,642L1312,888L1374,657Z" fill="#ad2214" stroke="#ad2214" stroke-width="1.51"/><path d="M825,565L1061,827L1074,642Z" fill="#c23f26" stroke="#c23f26" stroke-width="1.51"/><path d="M653,373L622,625L825,565Z" fill="#e36138" stroke="#e36138" stroke-width="1.51"/><path d="M825,565L866,906L1061,827Z" fill="#b94227" stroke="#b94227" stroke-width="1.51"/><path d="M1375,149L1357,-104L1059,-35Z" fill="#f08356" stroke="#f08356" stroke-width="1.51"/><path d="M788,-254L561,28L864,-2Z" fill="#feb079" stroke="#feb079" stroke-width="1.51"/><path d="M1374,657L1600,341L1312,364Z" fill="#cf2919" stroke="#cf2919" stroke-width="1.51"/><path d="M1375,149L1542,-94L1357,-104Z" fill="#e77c4e" stroke="#e77c4e" stroke-width="1.51"/><path d="M1374,657L1468,696L1600,341Z" fill="#be1509" stroke="#be1509" stroke-width="1.51"/><path d="M1312,888L1468,696L1374,657Z" fill="#a5140c" stroke="#a5140c" stroke-width="1.51"/><path d="M704,237L407,214L653,373Z" fill="#f98d5f" stroke="#f98d5f" stroke-width="1.51"/><path d="M653,373L387,350L622,625Z" fill="#ed764b" stroke="#ed764b" stroke-width="1.51"/><path d="M864,-2L561,28L806,96Z" fill="#fda46e" stroke="#fda46e" stroke-width="1.51"/><path d="M788,-254L864,-2L1059,-35Z" fill="#fca775" stroke="#fca775" stroke-width="1.51"/><path d="M1357,-104L1148,-231L1059,-35Z" fill="#f59468" stroke="#f59468" stroke-width="1.51"/><path d="M1600,341L1605,225L1375,149Z" fill="#d94e2d" stroke="#d94e2d" stroke-width="1.51"/><path d="M622,625L866,906L825,565Z" fill="#c34e2c" stroke="#c34e2c" stroke-width="1.51"/><path d="M1061,827L1312,888L1074,642Z" fill="#b12d1c" stroke="#b12d1c" stroke-width="1.51"/><path d="M866,906L1312,888L1061,827Z" fill="#b43421" stroke="#b43421" stroke-width="1.51"/><path d="M1148,-231L788,-254L1059,-35Z" fill="#fca67c" stroke="#fca67c" stroke-width="1.51"/><path d="M561,28L407,214L704,237Z" fill="#fda06a" stroke="#fda06a" stroke-width="1.51"/><path d="M422,-13L407,214L561,28Z" fill="#fdb57e" stroke="#fdb57e" stroke-width="1.51"/><path d="M1148,-231L597,-318L788,-254Z" fill="#ffb68f" stroke="#ffb68f" stroke-width="1.51"/><path d="M1357,-104L1316,-260L1148,-231Z" fill="#f3936c" stroke="#f3936c" stroke-width="1.51"/><path d="M1542,-94L1316,-260L1357,-104Z" fill="#ec885e" stroke="#ec885e" stroke-width="1.51"/><path d="M1605,225L1542,-94L1375,149Z" fill="#e0693d" stroke="#e0693d" stroke-width="1.51"/><path d="M407,214L387,350L653,373Z" fill="#f89164" stroke="#f89164" stroke-width="1.51"/><path d="M334,767L612,864L622,625Z" fill="#bf623c" stroke="#bf623c" stroke-width="1.51"/><path d="M622,625L612,864L866,906Z" fill="#be522f" stroke="#be522f" stroke-width="1.51"/><path d="M1769,553L1773,441L1600,341Z" fill="#ba1f12" stroke="#ba1f12" stroke-width="1.51"/><path d="M1312,888L1548,794L1468,696Z" fill="#a21009" stroke="#a21009" stroke-width="1.51"/><path d="M232,204L237,395L387,350Z" fill="#f99a6d" stroke="#f99a6d" stroke-width="1.51"/><path d="M395,-212L422,-13L561,28Z" fill="#fdc58e" stroke="#fdc58e" stroke-width="1.51"/><path d="M1605,225L1745,7L1542,-94Z" fill="#d86b3f" stroke="#d86b3f" stroke-width="1.51"/><path d="M1600,341L1794,175L1605,225Z" fill="#ce4829" stroke="#ce4829" stroke-width="1.51"/><path d="M1769,553L1600,341L1468,696Z" fill="#b91007" stroke="#b91007" stroke-width="1.51"/><path d="M387,350L340,605L622,625Z" fill="#e5774a" stroke="#e5774a" stroke-width="1.51"/><path d="M237,395L340,605L387,350Z" fill="#ef8458" stroke="#ef8458" stroke-width="1.51"/><path d="M1548,794L1769,553L1468,696Z" fill="#a20001" stroke="#a20001" stroke-width="1.51"/><path d="M1773,441L1794,175L1600,341Z" fill="#c43b24" stroke="#c43b24" stroke-width="1.51"/><path d="M1943,243L1794,175L1773,441Z" fill="#bb3e25" stroke="#bb3e25" stroke-width="1.51"/><path d="M1542,-94L1582,-344L1316,-260Z" fill="#e98a65" stroke="#e98a65" stroke-width="1.51"/><path d="M1794,175L1745,7L1605,225Z" fill="#ce5932" stroke="#ce5932" stroke-width="1.51"/><path d="M788,-254L597,-318L561,28Z" fill="#ffbf8e" stroke="#ffbf8e" stroke-width="1.51"/><path d="M1316,-260L597,-318L1148,-231Z" fill="#fdab89" stroke="#fdab89" stroke-width="1.51"/><path d="M232,204L387,350L407,214Z" fill="#fb9f6f" stroke="#fb9f6f" stroke-width="1.51"/><path d="M422,-13L232,204L407,214Z" fill="#feb07a" stroke="#feb07a" stroke-width="1.51"/><path d="M154,-71L232,204L422,-13Z" fill="#fdc38c" stroke="#fdc38c" stroke-width="1.51"/><path d="M208,593L334,767L340,605Z" fill="#d27448" stroke="#d27448" stroke-width="1.51"/><path d="M340,605L334,767L622,625Z" fill="#ce6c42" stroke="#ce6c42" stroke-width="1.51"/><path d="M597,-318L395,-212L561,28Z" fill="#fec896" stroke="#fec896" stroke-width="1.51"/><path d="M1759,-271L1582,-344L1542,-94Z" fill="#de845f" stroke="#de845f" stroke-width="1.51"/><path d="M1316,-260L1582,-344L597,-318Z" fill="#faa283" stroke="#faa283" stroke-width="1.51"/><path d="M237,395L208,593L340,605Z" fill="#e67f51" stroke="#e67f51" stroke-width="1.51"/><path d="M35,654L208,593L-48,470Z" fill="#e38359" stroke="#e38359" stroke-width="1.51"/><path d="M1794,175L1981,16L1745,7Z" fill="#c3623b" stroke="#c3623b" stroke-width="1.51"/><path d="M1769,553L1911,465L1773,441Z" fill="#ab160d" stroke="#ab160d" stroke-width="1.51"/><path d="M2057,593L1911,465L1769,553Z" fill="#a00d07" stroke="#a00d07" stroke-width="1.51"/><path d="M1911,465L1943,243L1773,441Z" fill="#b02b1b" stroke="#b02b1b" stroke-width="1.51"/><path d="M1745,7L1759,-271L1542,-94Z" fill="#d67a4f" stroke="#d67a4f" stroke-width="1.51"/><path d="M1548,794L1748,927L1769,553Z" fill="#900001" stroke="#900001" stroke-width="1.51"/><path d="M1312,888L1748,927L1548,794Z" fill="#9c0604" stroke="#9c0604" stroke-width="1.51"/><path d="M866,906L1748,927L1312,888Z" fill="#aa1a10" stroke="#aa1a10" stroke-width="1.51"/><path d="M1972,-232L1759,-271L1745,7Z" fill="#c87954" stroke="#c87954" stroke-width="1.51"/><path d="M208,593L248,864L334,767Z" fill="#c16f48" stroke="#c16f48" stroke-width="1.51"/><path d="M334,767L248,864L612,864Z" fill="#c06943" stroke="#c06943" stroke-width="1.51"/><path d="M612,864L248,864L866,906Z" fill="#bf5d38" stroke="#bf5d38" stroke-width="1.51"/><path d="M232,204L32,251L237,395Z" fill="#fba475" stroke="#fba475" stroke-width="1.51"/><path d="M395,-212L154,-71L422,-13Z" fill="#fdce97" stroke="#fdce97" stroke-width="1.51"/><path d="M2057,593L1981,16L1943,243Z" fill="#b83d26" stroke="#b83d26" stroke-width="1.51"/><path d="M1943,243L1981,16L1794,175Z" fill="#be5330" stroke="#be5330" stroke-width="1.51"/><path d="M154,-71L32,251L232,204Z" fill="#ffbb86" stroke="#ffbb86" stroke-width="1.51"/><path d="M208,593L35,654L248,864Z" fill="#c9764e" stroke="#c9764e" stroke-width="1.51"/><path d="M154,-71L-99,31L32,251Z" fill="#ffc897" stroke="#ffc897" stroke-width="1.51"/><path d="M395,-212L218,-277L154,-71Z" fill="#fed7a7" stroke="#fed7a7" stroke-width="1.51"/><path d="M597,-318L218,-277L395,-212Z" fill="#ffd5ac" stroke="#ffd5ac" stroke-width="1.51"/><path d="M1911,465L2057,593L1943,243Z" fill="#ac2013" stroke="#ac2013" stroke-width="1.51"/><path d="M2012,771L2057,593L1769,553Z" fill="#910001" stroke="#910001" stroke-width="1.51"/><path d="M-48,470L208,593L237,395Z" fill="#ed895d" stroke="#ed895d" stroke-width="1.51"/><path d="M1748,927L2012,771L1769,553Z" fill="#810000" stroke="#810000" stroke-width="1.51"/><path d="M1981,16L1972,-232L1745,7Z" fill="#c17048" stroke="#c17048" stroke-width="1.51"/><path d="M1759,-271L1972,-232L1582,-344Z" fill="#d08264" stroke="#d08264" stroke-width="1.51"/><path d="M2057,593L1972,-232L1981,16Z" fill="#be5733" stroke="#be5733" stroke-width="1.51"/><path d="M-338,462L-48,470L-335,133Z" fill="#fba788" stroke="#fba788" stroke-width="1.51"/><path d="M32,251L-48,470L237,395Z" fill="#f79a71" stroke="#f79a71" stroke-width="1.51"/><path d="M-183,610L16,782L35,654Z" fill="#d07f5c" stroke="#d07f5c" stroke-width="1.51"/><path d="M35,654L16,782L248,864Z" fill="#c37651" stroke="#c37651" stroke-width="1.51"/><path d="M17,-292L-99,31L154,-71Z" fill="#fedaab" stroke="#fedaab" stroke-width="1.51"/><path d="M218,-277L17,-292L154,-71Z" fill="#feddb2" stroke="#feddb2" stroke-width="1.51"/><path d="M597,-318L17,-292L218,-277Z" fill="#ffdcb5" stroke="#ffdcb5" stroke-width="1.51"/><path d="M-48,470L-183,610L35,654Z" fill="#e48661" stroke="#e48661" stroke-width="1.51"/><path d="M-338,462L-183,610L-48,470Z" fill="#ee9070" stroke="#ee9070" stroke-width="1.51"/><path d="M-183,610L-202,884L16,782Z" fill="#c57d60" stroke="#c57d60" stroke-width="1.51"/><path d="M16,782L-202,884L248,864Z" fill="#c47857" stroke="#c47857" stroke-width="1.51"/><path d="M248,864L-202,884L866,906Z" fill="#c16e46" stroke="#c16e46" stroke-width="1.51"/><path d="M866,906L-202,884L1748,927Z" fill="#bc4a2a" stroke="#bc4a2a" stroke-width="1.51"/><path d="M-335,133L-48,470L32,251Z" fill="#fead8a" stroke="#fead8a" stroke-width="1.51"/><path d="M-183,610L-338,462L-202,884Z" fill="#d98669" stroke="#d98669" stroke-width="1.51"/><path d="M17,-292L-253,-110L-99,31Z" fill="#fee0b7" stroke="#fee0b7" stroke-width="1.51"/><path d="M-335,133L32,251L-99,31Z" fill="#ffc298" stroke="#ffc298" stroke-width="1.51"/><path d="M-253,-110L-335,133L-99,31Z" fill="#ffd6b0" stroke="#ffd6b0" stroke-width="1.51"/><path d="M-253,-110L-306,-290L-335,133Z" fill="#ffe2bf" stroke="#ffe2bf" stroke-width="1.51"/><path d="M17,-292L-306,-290L-253,-110Z" fill="#ffe9cb" stroke="#ffe9cb" stroke-width="1.51"/><path d="M597,-318L-306,-290L17,-292Z" fill="#ffe4c0" stroke="#ffe4c0" stroke-width="1.51"/></svg>